<mxfile host="app.diagrams.net" modified="2024-05-30T10:33:12.802Z" agent="Mozilla/5.0 (Windows NT 10.0; Win64; x64; rv:125.0) Gecko/20100101 Firefox/125.0" etag="koaIfazk1KWUCUbocZ4_" version="24.4.10" type="github" pages="5">
  <diagram id="GSO0hhB5HU-CJFFYYbM_" name="电源政策架构">
    <mxGraphModel dx="911" dy="594" grid="0" gridSize="10" guides="1" tooltips="1" connect="1" arrows="1" fold="1" page="1" pageScale="1" pageWidth="827" pageHeight="1169" math="0" shadow="0">
      <root>
        <mxCell id="0" />
        <mxCell id="1" parent="0" />
        <mxCell id="y9bG7x7FlNeVhM2Q35I2-1" value="" style="html=1;whiteSpace=wrap;dashed=1;fillColor=#bac8d3;strokeColor=#23445d;" parent="1" vertex="1">
          <mxGeometry x="198" y="221" width="450" height="190" as="geometry" />
        </mxCell>
        <mxCell id="y9bG7x7FlNeVhM2Q35I2-2" value="CarPower&lt;br&gt;ManagenebtService&lt;br&gt;(CPMS)" style="shape=module;align=left;spacingLeft=20;align=center;verticalAlign=middle;whiteSpace=wrap;html=1;" parent="1" vertex="1">
          <mxGeometry x="278" y="331" width="140" height="60" as="geometry" />
        </mxCell>
        <mxCell id="y9bG7x7FlNeVhM2Q35I2-3" value="VHAL" style="shape=module;align=left;spacingLeft=20;align=center;verticalAlign=middle;whiteSpace=wrap;html=1;fillColor=#bac8d3;strokeColor=#23445d;" parent="1" vertex="1">
          <mxGeometry x="278" y="502" width="140" height="60" as="geometry" />
        </mxCell>
        <mxCell id="y9bG7x7FlNeVhM2Q35I2-4" value="Car power&lt;br&gt;policy daemon" style="shape=module;align=left;spacingLeft=20;align=center;verticalAlign=middle;whiteSpace=wrap;html=1;fillColor=#bac8d3;strokeColor=#23445d;" parent="1" vertex="1">
          <mxGeometry x="478" y="502" width="140" height="60" as="geometry" />
        </mxCell>
        <mxCell id="y9bG7x7FlNeVhM2Q35I2-5" value="Native process" style="shape=module;align=left;spacingLeft=20;align=center;verticalAlign=middle;whiteSpace=wrap;html=1;fillColor=#60a917;strokeColor=#2D7600;fontColor=#ffffff;" parent="1" vertex="1">
          <mxGeometry x="58" y="502" width="140" height="60" as="geometry" />
        </mxCell>
        <mxCell id="y9bG7x7FlNeVhM2Q35I2-6" value="GeelyPower&lt;br&gt;Service" style="shape=module;align=left;spacingLeft=20;align=center;verticalAlign=middle;whiteSpace=wrap;html=1;labelBackgroundColor=none;fillColor=#60a917;fontColor=#ffffff;strokeColor=#2D7600;" parent="1" vertex="1">
          <mxGeometry x="278" y="121" width="140" height="60" as="geometry" />
        </mxCell>
        <mxCell id="y9bG7x7FlNeVhM2Q35I2-7" value="CarBluetooth&lt;br&gt;Service" style="shape=module;align=left;spacingLeft=20;align=center;verticalAlign=middle;whiteSpace=wrap;html=1;" parent="1" vertex="1">
          <mxGeometry x="478" y="249" width="140" height="60" as="geometry" />
        </mxCell>
        <mxCell id="y9bG7x7FlNeVhM2Q35I2-8" value="CarAudio&lt;br&gt;PowerListener" style="shape=module;align=left;spacingLeft=20;align=center;verticalAlign=middle;whiteSpace=wrap;html=1;" parent="1" vertex="1">
          <mxGeometry x="478" y="331" width="140" height="60" as="geometry" />
        </mxCell>
        <mxCell id="y9bG7x7FlNeVhM2Q35I2-9" value="" style="endArrow=none;html=1;edgeStyle=orthogonalEdgeStyle;rounded=0;exitX=0.5;exitY=1;exitDx=0;exitDy=0;entryX=0.5;entryY=0;entryDx=0;entryDy=0;fillColor=#b1ddf0;strokeColor=#10739e;" parent="1" source="y9bG7x7FlNeVhM2Q35I2-2" target="y9bG7x7FlNeVhM2Q35I2-3" edge="1">
          <mxGeometry relative="1" as="geometry">
            <mxPoint x="268" y="301" as="sourcePoint" />
            <mxPoint x="428" y="301" as="targetPoint" />
          </mxGeometry>
        </mxCell>
        <mxCell id="y9bG7x7FlNeVhM2Q35I2-10" value="" style="endArrow=none;html=1;edgeStyle=orthogonalEdgeStyle;rounded=0;entryX=1;entryY=0.5;entryDx=0;entryDy=0;exitX=0.129;exitY=0.511;exitDx=0;exitDy=0;exitPerimeter=0;fillColor=#b1ddf0;strokeColor=#10739e;" parent="1" source="y9bG7x7FlNeVhM2Q35I2-4" target="y9bG7x7FlNeVhM2Q35I2-3" edge="1">
          <mxGeometry relative="1" as="geometry">
            <mxPoint x="268" y="401" as="sourcePoint" />
            <mxPoint x="428" y="401" as="targetPoint" />
          </mxGeometry>
        </mxCell>
        <mxCell id="y9bG7x7FlNeVhM2Q35I2-11" value="" style="endArrow=none;html=1;edgeStyle=orthogonalEdgeStyle;rounded=0;exitX=0.567;exitY=-0.011;exitDx=0;exitDy=0;exitPerimeter=0;fillColor=#ffcc99;strokeColor=#FBBD04;" parent="1" source="y9bG7x7FlNeVhM2Q35I2-4" target="y9bG7x7FlNeVhM2Q35I2-2" edge="1">
          <mxGeometry relative="1" as="geometry">
            <mxPoint x="258" y="301" as="sourcePoint" />
            <mxPoint x="418" y="301" as="targetPoint" />
            <Array as="points">
              <mxPoint x="557" y="431" />
              <mxPoint x="388" y="431" />
            </Array>
          </mxGeometry>
        </mxCell>
        <mxCell id="y9bG7x7FlNeVhM2Q35I2-12" value="CarService" style="text;align=center;fontStyle=1;verticalAlign=middle;spacingLeft=3;spacingRight=3;strokeColor=none;rotatable=0;points=[[0,0.5],[1,0.5]];portConstraint=eastwest;html=1;" parent="1" vertex="1">
          <mxGeometry x="198" y="223" width="80" height="26" as="geometry" />
        </mxCell>
        <mxCell id="y9bG7x7FlNeVhM2Q35I2-13" value="" style="endArrow=block;endFill=1;html=1;edgeStyle=orthogonalEdgeStyle;align=left;verticalAlign=top;rounded=0;entryX=-0.004;entryY=0.515;entryDx=0;entryDy=0;entryPerimeter=0;fillColor=#f8cecc;strokeColor=#b85450;" parent="1" source="y9bG7x7FlNeVhM2Q35I2-5" target="y9bG7x7FlNeVhM2Q35I2-3" edge="1">
          <mxGeometry x="-1" relative="1" as="geometry">
            <mxPoint x="230" y="559" as="sourcePoint" />
            <mxPoint x="390" y="559" as="targetPoint" />
            <Array as="points" />
          </mxGeometry>
        </mxCell>
        <mxCell id="y9bG7x7FlNeVhM2Q35I2-14" value="" style="endArrow=block;endFill=1;html=1;align=left;verticalAlign=top;rounded=0;entryX=0.016;entryY=0.511;entryDx=0;entryDy=0;entryPerimeter=0;exitX=0.032;exitY=0.498;exitDx=0;exitDy=0;exitPerimeter=0;fillColor=#f8cecc;strokeColor=#b85450;" parent="1" source="y9bG7x7FlNeVhM2Q35I2-8" edge="1">
          <mxGeometry x="-1" relative="1" as="geometry">
            <mxPoint x="578" y="360.5799999999999" as="sourcePoint" />
            <mxPoint x="418" y="360.5799999999999" as="targetPoint" />
          </mxGeometry>
        </mxCell>
        <mxCell id="y9bG7x7FlNeVhM2Q35I2-15" value="" style="endArrow=block;endFill=1;html=1;align=left;verticalAlign=top;rounded=0;entryX=0.5;entryY=0;entryDx=0;entryDy=0;fillColor=#f8cecc;strokeColor=#b85450;" parent="1" target="y9bG7x7FlNeVhM2Q35I2-2" edge="1">
          <mxGeometry x="-1" relative="1" as="geometry">
            <mxPoint x="478" y="279.88" as="sourcePoint" />
            <mxPoint x="346" y="331" as="targetPoint" />
            <Array as="points">
              <mxPoint x="348" y="279" />
            </Array>
          </mxGeometry>
        </mxCell>
        <mxCell id="y9bG7x7FlNeVhM2Q35I2-16" value="" style="endArrow=block;endFill=1;html=1;edgeStyle=orthogonalEdgeStyle;align=left;verticalAlign=top;rounded=0;exitX=0.5;exitY=1;exitDx=0;exitDy=0;entryX=0.5;entryY=0;entryDx=0;entryDy=0;fillColor=#f8cecc;strokeColor=#b85450;" parent="1" source="y9bG7x7FlNeVhM2Q35I2-6" target="y9bG7x7FlNeVhM2Q35I2-2" edge="1">
          <mxGeometry x="-1" relative="1" as="geometry">
            <mxPoint x="276" y="260" as="sourcePoint" />
            <mxPoint x="436" y="260" as="targetPoint" />
            <mxPoint as="offset" />
          </mxGeometry>
        </mxCell>
        <mxCell id="y9bG7x7FlNeVhM2Q35I2-17" value="Synchronization" style="text;align=center;fontStyle=1;verticalAlign=middle;spacingLeft=3;spacingRight=3;strokeColor=none;rotatable=0;points=[[0,0.5],[1,0.5]];portConstraint=eastwest;html=1;fontColor=#808080;" parent="1" vertex="1">
          <mxGeometry x="428" y="433" width="80" height="26" as="geometry" />
        </mxCell>
        <mxCell id="y9bG7x7FlNeVhM2Q35I2-18" value="" style="line;strokeWidth=1;fillColor=none;align=left;verticalAlign=middle;spacingTop=-1;spacingLeft=3;spacingRight=3;rotatable=0;labelPosition=right;points=[];portConstraint=eastwest;strokeColor=inherit;dashed=1;" parent="1" vertex="1">
          <mxGeometry x="16" y="453" width="655" height="8" as="geometry" />
        </mxCell>
        <mxCell id="y9bG7x7FlNeVhM2Q35I2-19" value="framework layer" style="text;align=left;fontStyle=1;verticalAlign=middle;spacingLeft=3;spacingRight=3;strokeColor=none;rotatable=0;points=[[0,0.5],[1,0.5]];portConstraint=eastwest;html=1;fontColor=#808080;" parent="1" vertex="1">
          <mxGeometry x="38" y="121" width="80" height="26" as="geometry" />
        </mxCell>
        <mxCell id="y9bG7x7FlNeVhM2Q35I2-20" value="native layer" style="text;align=left;fontStyle=1;verticalAlign=middle;spacingLeft=3;spacingRight=3;strokeColor=none;rotatable=0;points=[[0,0.5],[1,0.5]];portConstraint=eastwest;html=1;fontColor=#808080;" parent="1" vertex="1">
          <mxGeometry x="38" y="459" width="80" height="26" as="geometry" />
        </mxCell>
        <mxCell id="y9bG7x7FlNeVhM2Q35I2-21" value="" style="group" parent="1" vertex="1" connectable="0">
          <mxGeometry x="726" y="221" width="89" height="196" as="geometry" />
        </mxCell>
        <mxCell id="y9bG7x7FlNeVhM2Q35I2-22" value="register power policy" style="endArrow=block;endFill=1;html=1;edgeStyle=orthogonalEdgeStyle;align=left;verticalAlign=top;rounded=0;fillColor=#fad9d5;strokeColor=#ae4132;" parent="y9bG7x7FlNeVhM2Q35I2-21" edge="1">
          <mxGeometry x="-1" relative="1" as="geometry">
            <mxPoint as="sourcePoint" />
            <mxPoint x="89" as="targetPoint" />
          </mxGeometry>
        </mxCell>
        <mxCell id="y9bG7x7FlNeVhM2Q35I2-23" value="2-way invacation" style="endArrow=none;endFill=0;html=1;edgeStyle=orthogonalEdgeStyle;align=left;verticalAlign=top;rounded=0;fillColor=#b1ddf0;strokeColor=#10739e;" parent="y9bG7x7FlNeVhM2Q35I2-21" edge="1">
          <mxGeometry x="-1" relative="1" as="geometry">
            <mxPoint y="36" as="sourcePoint" />
            <mxPoint x="89" y="36" as="targetPoint" />
          </mxGeometry>
        </mxCell>
        <mxCell id="y9bG7x7FlNeVhM2Q35I2-24" value="Sync between CPMS and daemon" style="endArrow=none;endFill=0;html=1;edgeStyle=orthogonalEdgeStyle;align=left;verticalAlign=top;rounded=0;fillColor=#ffcd28;strokeColor=#d79b00;gradientColor=#ffa500;" parent="y9bG7x7FlNeVhM2Q35I2-21" edge="1">
          <mxGeometry x="-1" relative="1" as="geometry">
            <mxPoint y="73" as="sourcePoint" />
            <mxPoint x="89" y="73" as="targetPoint" />
          </mxGeometry>
        </mxCell>
        <mxCell id="y9bG7x7FlNeVhM2Q35I2-25" value="" style="html=1;whiteSpace=wrap;fillColor=#60a917;fontColor=#ffffff;strokeColor=#2D7600;" parent="y9bG7x7FlNeVhM2Q35I2-21" vertex="1">
          <mxGeometry x="6" y="106" width="15" height="15" as="geometry" />
        </mxCell>
        <mxCell id="y9bG7x7FlNeVhM2Q35I2-26" value="custom apps" style="text;align=left;fontStyle=1;verticalAlign=middle;spacingLeft=3;spacingRight=3;strokeColor=none;rotatable=0;points=[[0,0.5],[1,0.5]];portConstraint=eastwest;html=1;fontColor=#808080;" parent="y9bG7x7FlNeVhM2Q35I2-21" vertex="1">
          <mxGeometry y="122" width="80" height="26" as="geometry" />
        </mxCell>
        <mxCell id="y9bG7x7FlNeVhM2Q35I2-27" value="aosp apps" style="text;align=left;fontStyle=1;verticalAlign=middle;spacingLeft=3;spacingRight=3;strokeColor=none;rotatable=0;points=[[0,0.5],[1,0.5]];portConstraint=eastwest;html=1;fontColor=#808080;" parent="y9bG7x7FlNeVhM2Q35I2-21" vertex="1">
          <mxGeometry y="170" width="80" height="26" as="geometry" />
        </mxCell>
        <mxCell id="y9bG7x7FlNeVhM2Q35I2-28" value="" style="html=1;whiteSpace=wrap;fillColor=#bac8d3;strokeColor=#23445d;" parent="y9bG7x7FlNeVhM2Q35I2-21" vertex="1">
          <mxGeometry x="6" y="155" width="15" height="15" as="geometry" />
        </mxCell>
      </root>
    </mxGraphModel>
  </diagram>
  <diagram id="T7ZNSCO9evXRUqMuf9Vd" name="power_policy">
    <mxGraphModel dx="794" dy="394" grid="1" gridSize="10" guides="1" tooltips="1" connect="1" arrows="1" fold="1" page="1" pageScale="1" pageWidth="827" pageHeight="1169" math="0" shadow="0">
      <root>
        <mxCell id="0" />
        <mxCell id="1" parent="0" />
        <UserObject label="&lt;div style=&quot;background-color:#2b2b2b;color:#a9b7c6&quot;&gt;&lt;pre style=&quot;font-family:&#39;JetBrains Mono&#39;,monospace;font-size:11.3pt;&quot;&gt;&lt;span style=&quot;color:#e8bf6a;&quot;&gt;&amp;lt;?&lt;/span&gt;&lt;span style=&quot;color:#bababa;&quot;&gt;xml version&lt;/span&gt;&lt;span style=&quot;color:#6a8759;&quot;&gt;=&#39;1.0&#39; &lt;/span&gt;&lt;span style=&quot;color:#bababa;&quot;&gt;encoding&lt;/span&gt;&lt;span style=&quot;color:#6a8759;&quot;&gt;=&#39;utf-8&#39;&lt;/span&gt;&lt;span style=&quot;color:#e8bf6a;&quot;&gt;?&amp;gt;&lt;br&gt;&lt;/span&gt;&lt;span style=&quot;color:#808080;&quot;&gt;&amp;lt;!-- Sample power policy XML configuration&lt;br&gt;&lt;/span&gt;&lt;span style=&quot;color:#808080;&quot;&gt;     Power policy XML configuration should be copied to /vendor/etc/power_policy.xml.&lt;br&gt;&lt;/span&gt;&lt;span style=&quot;color:#808080;&quot;&gt;     Use power_policy_configuration.dtd with xmllint tool, to validate XML configuration file&lt;br&gt;&lt;/span&gt;&lt;span style=&quot;color:#808080;&quot;&gt;--&amp;gt;&lt;br&gt;&lt;/span&gt;&lt;span style=&quot;color:#808080;&quot;&gt;&lt;br&gt;&lt;/span&gt;&lt;span style=&quot;color:#e8bf6a;&quot;&gt;&amp;lt;powerPolicy &lt;/span&gt;&lt;span style=&quot;color:#bababa;&quot;&gt;version&lt;/span&gt;&lt;span style=&quot;color:#6a8759;&quot;&gt;=&quot;1.0&quot;&lt;/span&gt;&lt;span style=&quot;color:#e8bf6a;&quot;&gt;&amp;gt;&lt;br&gt;&lt;/span&gt;&lt;span style=&quot;color:#e8bf6a;&quot;&gt;    &lt;/span&gt;&lt;span style=&quot;color:#808080;&quot;&gt;&amp;lt;!-- version section contains a “version&quot; tag in the form “major.minor&quot; e.g version=&quot;1.0&quot; --&amp;gt;&lt;br&gt;&lt;/span&gt;&lt;span style=&quot;color:#808080;&quot;&gt;    &lt;/span&gt;&lt;span style=&quot;color:#e8bf6a;&quot;&gt;&amp;lt;policyGroups&amp;gt;&lt;br&gt;&lt;/span&gt;&lt;span style=&quot;color:#e8bf6a;&quot;&gt;        &amp;lt;policyGroup &lt;/span&gt;&lt;span style=&quot;color:#bababa;&quot;&gt;id&lt;/span&gt;&lt;span style=&quot;color:#6a8759;&quot;&gt;=&quot;geely_basic_policy_group&quot;&lt;/span&gt;&lt;span style=&quot;color:#e8bf6a;&quot;&gt;&amp;gt;&lt;br&gt;&lt;/span&gt;&lt;span style=&quot;color:#e8bf6a;&quot;&gt;            &amp;lt;defaultPolicy &lt;/span&gt;&lt;span style=&quot;color:#bababa;&quot;&gt;state&lt;/span&gt;&lt;span style=&quot;color:#6a8759;&quot;&gt;=&quot;WaitForVHAL&quot; &lt;/span&gt;&lt;span style=&quot;color:#bababa;&quot;&gt;id&lt;/span&gt;&lt;span style=&quot;color:#6a8759;&quot;&gt;=&quot;geely_policy_on&quot;&lt;/span&gt;&lt;span style=&quot;color:#e8bf6a;&quot;&gt;/&amp;gt;&lt;br&gt;&lt;/span&gt;&lt;span style=&quot;color:#e8bf6a;&quot;&gt;            &amp;lt;defaultPolicy &lt;/span&gt;&lt;span style=&quot;color:#bababa;&quot;&gt;state&lt;/span&gt;&lt;span style=&quot;color:#6a8759;&quot;&gt;=&quot;On&quot; &lt;/span&gt;&lt;span style=&quot;color:#bababa;&quot;&gt;id&lt;/span&gt;&lt;span style=&quot;color:#6a8759;&quot;&gt;=&quot;geely_policy_on&quot;&lt;/span&gt;&lt;span style=&quot;color:#e8bf6a;&quot;&gt;/&amp;gt;&lt;br&gt;&lt;/span&gt;&lt;span style=&quot;color:#e8bf6a;&quot;&gt;        &amp;lt;/policyGroup&amp;gt;&lt;br&gt;&lt;/span&gt;&lt;span style=&quot;color:#e8bf6a;&quot;&gt;    &amp;lt;/policyGroups&amp;gt;&lt;br&gt;&lt;/span&gt;&lt;span style=&quot;color:#e8bf6a;&quot;&gt;&lt;br&gt;&lt;/span&gt;&lt;span style=&quot;color:#e8bf6a;&quot;&gt;    &amp;lt;policies&amp;gt;&lt;br&gt;&lt;/span&gt;&lt;span style=&quot;color:#e8bf6a;&quot;&gt;        &amp;lt;policy &lt;/span&gt;&lt;span style=&quot;color:#bababa;&quot;&gt;id&lt;/span&gt;&lt;span style=&quot;color:#6a8759;&quot;&gt;=&quot;geely_policy_on&quot;&lt;/span&gt;&lt;span style=&quot;color:#e8bf6a;&quot;&gt;&amp;gt;&lt;br&gt;&lt;/span&gt;&lt;span style=&quot;color:#e8bf6a;&quot;&gt;            &amp;lt;otherComponents &lt;/span&gt;&lt;span style=&quot;color:#bababa;&quot;&gt;behavior&lt;/span&gt;&lt;span style=&quot;color:#6a8759;&quot;&gt;=&quot;untouched&quot;&lt;/span&gt;&lt;span style=&quot;color:#e8bf6a;&quot;&gt;/&amp;gt;&lt;br&gt;&lt;/span&gt;&lt;span style=&quot;color:#e8bf6a;&quot;&gt;            &amp;lt;component &lt;/span&gt;&lt;span style=&quot;color:#bababa;&quot;&gt;id&lt;/span&gt;&lt;span style=&quot;color:#6a8759;&quot;&gt;=&quot;POWER_COMPONENT_AUDIO&quot;&lt;/span&gt;&lt;span style=&quot;color:#e8bf6a;&quot;&gt;&amp;gt;&lt;/span&gt;on&lt;span style=&quot;color:#e8bf6a;&quot;&gt;&amp;lt;/component&amp;gt;&lt;br&gt;&lt;/span&gt;&lt;span style=&quot;color:#e8bf6a;&quot;&gt;            &amp;lt;component &lt;/span&gt;&lt;span style=&quot;color:#bababa;&quot;&gt;id&lt;/span&gt;&lt;span style=&quot;color:#6a8759;&quot;&gt;=&quot;POWER_COMPONENT_BLUETOOTH&quot;&lt;/span&gt;&lt;span style=&quot;color:#e8bf6a;&quot;&gt;&amp;gt;&lt;/span&gt;on&lt;span style=&quot;color:#e8bf6a;&quot;&gt;&amp;lt;/component&amp;gt;&lt;br&gt;&lt;/span&gt;&lt;span style=&quot;color:#e8bf6a;&quot;&gt;            &amp;lt;component &lt;/span&gt;&lt;span style=&quot;color:#bababa;&quot;&gt;id&lt;/span&gt;&lt;span style=&quot;color:#6a8759;&quot;&gt;=&quot;POWER_COMPONENT_WIFI&quot;&lt;/span&gt;&lt;span style=&quot;color:#e8bf6a;&quot;&gt;&amp;gt;&lt;/span&gt;off&lt;span style=&quot;color:#e8bf6a;&quot;&gt;&amp;lt;/component&amp;gt;&lt;br&gt;&lt;/span&gt;&lt;span style=&quot;color:#e8bf6a;&quot;&gt;        &amp;lt;/policy&amp;gt;&lt;br&gt;&lt;/span&gt;&lt;span style=&quot;color:#e8bf6a;&quot;&gt;        &amp;lt;policy &lt;/span&gt;&lt;span style=&quot;color:#bababa;&quot;&gt;id&lt;/span&gt;&lt;span style=&quot;color:#6a8759;&quot;&gt;=&quot;geely_policy_off&quot;&lt;/span&gt;&lt;span style=&quot;color:#e8bf6a;&quot;&gt;&amp;gt;&lt;br&gt;&lt;/span&gt;&lt;span style=&quot;color:#e8bf6a;&quot;&gt;            &amp;lt;otherComponents &lt;/span&gt;&lt;span style=&quot;color:#bababa;&quot;&gt;behavior&lt;/span&gt;&lt;span style=&quot;color:#6a8759;&quot;&gt;=&quot;untouched&quot;&lt;/span&gt;&lt;span style=&quot;color:#e8bf6a;&quot;&gt;/&amp;gt;&lt;br&gt;&lt;/span&gt;&lt;span style=&quot;color:#e8bf6a;&quot;&gt;            &amp;lt;component &lt;/span&gt;&lt;span style=&quot;color:#bababa;&quot;&gt;id&lt;/span&gt;&lt;span style=&quot;color:#6a8759;&quot;&gt;=&quot;POWER_COMPONENT_AUDIO&quot;&lt;/span&gt;&lt;span style=&quot;color:#e8bf6a;&quot;&gt;&amp;gt;&lt;/span&gt;off&lt;span style=&quot;color:#e8bf6a;&quot;&gt;&amp;lt;/component&amp;gt;&lt;br&gt;&lt;/span&gt;&lt;span style=&quot;color:#e8bf6a;&quot;&gt;            &amp;lt;component &lt;/span&gt;&lt;span style=&quot;color:#bababa;&quot;&gt;id&lt;/span&gt;&lt;span style=&quot;color:#6a8759;&quot;&gt;=&quot;POWER_COMPONENT_BLUETOOTH&quot;&lt;/span&gt;&lt;span style=&quot;color:#e8bf6a;&quot;&gt;&amp;gt;&lt;/span&gt;off&lt;span style=&quot;color:#e8bf6a;&quot;&gt;&amp;lt;/component&amp;gt;&lt;br&gt;&lt;/span&gt;&lt;span style=&quot;color:#e8bf6a;&quot;&gt;            &amp;lt;component &lt;/span&gt;&lt;span style=&quot;color:#bababa;&quot;&gt;id&lt;/span&gt;&lt;span style=&quot;color:#6a8759;&quot;&gt;=&quot;POWER_COMPONENT_WIFI&quot;&lt;/span&gt;&lt;span style=&quot;color:#e8bf6a;&quot;&gt;&amp;gt;&lt;/span&gt;off&lt;span style=&quot;color:#e8bf6a;&quot;&gt;&amp;lt;/component&amp;gt;&lt;br&gt;&lt;/span&gt;&lt;span style=&quot;color:#e8bf6a;&quot;&gt;        &amp;lt;/policy&amp;gt;&lt;br&gt;&lt;/span&gt;&lt;span style=&quot;color:#e8bf6a;&quot;&gt;    &amp;lt;/policies&amp;gt;&lt;br&gt;&lt;/span&gt;&lt;span style=&quot;color:#e8bf6a;&quot;&gt;&lt;br&gt;&lt;/span&gt;&lt;span style=&quot;color:#e8bf6a;&quot;&gt;    &amp;lt;systemPolicyOverrides&amp;gt;&lt;br&gt;&lt;/span&gt;&lt;span style=&quot;color:#e8bf6a;&quot;&gt;        &amp;lt;policy &lt;/span&gt;&lt;span style=&quot;color:#bababa;&quot;&gt;id&lt;/span&gt;&lt;span style=&quot;color:#6a8759;&quot;&gt;=&quot;system_power_policy_no_user_interaction&quot;&lt;/span&gt;&lt;span style=&quot;color:#e8bf6a;&quot;&gt;&amp;gt;&lt;/span&gt;&lt;span style=&quot;color:#808080;&quot;&gt;&lt;br&gt;&lt;/span&gt;&lt;span style=&quot;color:#808080;&quot;&gt;            &lt;/span&gt;&lt;span style=&quot;color:#e8bf6a;&quot;&gt;&amp;lt;component &lt;/span&gt;&lt;span style=&quot;color:#bababa;&quot;&gt;id&lt;/span&gt;&lt;span style=&quot;color:#6a8759;&quot;&gt;=&quot;POWER_COMPONENT_BLUETOOTH&quot;&lt;/span&gt;&lt;span style=&quot;color:#e8bf6a;&quot;&gt;&amp;gt;&lt;/span&gt;off&lt;span style=&quot;color:#e8bf6a;&quot;&gt;&amp;lt;/component&amp;gt;&lt;br&gt;&lt;/span&gt;&lt;span style=&quot;color:#e8bf6a;&quot;&gt;        &amp;lt;/policy&amp;gt;&lt;br&gt;&lt;/span&gt;&lt;span style=&quot;color:#e8bf6a;&quot;&gt;    &amp;lt;/systemPolicyOverrides&amp;gt;&lt;br&gt;&lt;/span&gt;&lt;span style=&quot;color:#e8bf6a;&quot;&gt;&amp;lt;/powerPolicy&amp;gt;&lt;/span&gt;&lt;/pre&gt;&lt;/div&gt;" link="&lt;div style=&quot;background-color:#2b2b2b;color:#a9b7c6&quot;&gt;&lt;pre style=&quot;font-family:&#39;JetBrains Mono&#39;,monospace;font-size:11.3pt;&quot;&gt;&lt;span style=&quot;color:#e8bf6a;&quot;&gt;&amp;lt;?&lt;/span&gt;&lt;span style=&quot;color:#bababa;&quot;&gt;xml version&lt;/span&gt;&lt;span style=&quot;color:#6a8759;&quot;&gt;=&#39;1.0&#39; &lt;/span&gt;&lt;span style=&quot;color:#bababa;&quot;&gt;encoding&lt;/span&gt;&lt;span style=&quot;color:#6a8759;&quot;&gt;=&#39;utf-8&#39;&lt;/span&gt;&lt;span style=&quot;color:#e8bf6a;&quot;&gt;?&amp;gt;&lt;br&gt;&lt;/span&gt;&lt;span style=&quot;color:#808080;&quot;&gt;&amp;lt;!-- Sample power policy XML configuration&lt;br&gt;&lt;/span&gt;&lt;span style=&quot;color:#808080;&quot;&gt;     Power policy XML configuration should be copied to /vendor/etc/power_policy.xml.&lt;br&gt;&lt;/span&gt;&lt;span style=&quot;color:#808080;&quot;&gt;     Use power_policy_configuration.dtd with xmllint tool, to validate XML configuration file&lt;br&gt;&lt;/span&gt;&lt;span style=&quot;color:#808080;&quot;&gt;--&amp;gt;&lt;br&gt;&lt;/span&gt;&lt;span style=&quot;color:#808080;&quot;&gt;&lt;br&gt;&lt;/span&gt;&lt;span style=&quot;color:#e8bf6a;&quot;&gt;&amp;lt;powerPolicy &lt;/span&gt;&lt;span style=&quot;color:#bababa;&quot;&gt;version&lt;/span&gt;&lt;span style=&quot;color:#6a8759;&quot;&gt;=&quot;1.0&quot;&lt;/span&gt;&lt;span style=&quot;color:#e8bf6a;&quot;&gt;&amp;gt;&lt;br&gt;&lt;/span&gt;&lt;span style=&quot;color:#e8bf6a;&quot;&gt;    &lt;/span&gt;&lt;span style=&quot;color:#808080;&quot;&gt;&amp;lt;!-- version section contains a “version&quot; tag in the form “major.minor&quot; e.g version=&quot;1.0&quot; --&amp;gt;&lt;br&gt;&lt;/span&gt;&lt;span style=&quot;color:#808080;&quot;&gt;    &lt;/span&gt;&lt;span style=&quot;color:#e8bf6a;&quot;&gt;&amp;lt;policyGroups&amp;gt;&lt;br&gt;&lt;/span&gt;&lt;span style=&quot;color:#e8bf6a;&quot;&gt;        &amp;lt;policyGroup &lt;/span&gt;&lt;span style=&quot;color:#bababa;&quot;&gt;id&lt;/span&gt;&lt;span style=&quot;color:#6a8759;&quot;&gt;=&quot;geely_basic_policy_group&quot;&lt;/span&gt;&lt;span style=&quot;color:#e8bf6a;&quot;&gt;&amp;gt;&lt;br&gt;&lt;/span&gt;&lt;span style=&quot;color:#e8bf6a;&quot;&gt;            &amp;lt;defaultPolicy &lt;/span&gt;&lt;span style=&quot;color:#bababa;&quot;&gt;state&lt;/span&gt;&lt;span style=&quot;color:#6a8759;&quot;&gt;=&quot;WaitForVHAL&quot; &lt;/span&gt;&lt;span style=&quot;color:#bababa;&quot;&gt;id&lt;/span&gt;&lt;span style=&quot;color:#6a8759;&quot;&gt;=&quot;geely_policy_on&quot;&lt;/span&gt;&lt;span style=&quot;color:#e8bf6a;&quot;&gt;/&amp;gt;&lt;br&gt;&lt;/span&gt;&lt;span style=&quot;color:#e8bf6a;&quot;&gt;            &amp;lt;defaultPolicy &lt;/span&gt;&lt;span style=&quot;color:#bababa;&quot;&gt;state&lt;/span&gt;&lt;span style=&quot;color:#6a8759;&quot;&gt;=&quot;On&quot; &lt;/span&gt;&lt;span style=&quot;color:#bababa;&quot;&gt;id&lt;/span&gt;&lt;span style=&quot;color:#6a8759;&quot;&gt;=&quot;geely_policy_on&quot;&lt;/span&gt;&lt;span style=&quot;color:#e8bf6a;&quot;&gt;/&amp;gt;&lt;br&gt;&lt;/span&gt;&lt;span style=&quot;color:#e8bf6a;&quot;&gt;        &amp;lt;/policyGroup&amp;gt;&lt;br&gt;&lt;/span&gt;&lt;span style=&quot;color:#e8bf6a;&quot;&gt;    &amp;lt;/policyGroups&amp;gt;&lt;br&gt;&lt;/span&gt;&lt;span style=&quot;color:#e8bf6a;&quot;&gt;&lt;br&gt;&lt;/span&gt;&lt;span style=&quot;color:#e8bf6a;&quot;&gt;    &amp;lt;policies&amp;gt;&lt;br&gt;&lt;/span&gt;&lt;span style=&quot;color:#e8bf6a;&quot;&gt;        &amp;lt;policy &lt;/span&gt;&lt;span style=&quot;color:#bababa;&quot;&gt;id&lt;/span&gt;&lt;span style=&quot;color:#6a8759;&quot;&gt;=&quot;geely_policy_on&quot;&lt;/span&gt;&lt;span style=&quot;color:#e8bf6a;&quot;&gt;&amp;gt;&lt;br&gt;&lt;/span&gt;&lt;span style=&quot;color:#e8bf6a;&quot;&gt;            &amp;lt;otherComponents &lt;/span&gt;&lt;span style=&quot;color:#bababa;&quot;&gt;behavior&lt;/span&gt;&lt;span style=&quot;color:#6a8759;&quot;&gt;=&quot;untouched&quot;&lt;/span&gt;&lt;span style=&quot;color:#e8bf6a;&quot;&gt;/&amp;gt;&lt;br&gt;&lt;/span&gt;&lt;span style=&quot;color:#e8bf6a;&quot;&gt;            &amp;lt;component &lt;/span&gt;&lt;span style=&quot;color:#bababa;&quot;&gt;id&lt;/span&gt;&lt;span style=&quot;color:#6a8759;&quot;&gt;=&quot;POWER_COMPONENT_AUDIO&quot;&lt;/span&gt;&lt;span style=&quot;color:#e8bf6a;&quot;&gt;&amp;gt;&lt;/span&gt;on&lt;span style=&quot;color:#e8bf6a;&quot;&gt;&amp;lt;/component&amp;gt;&lt;br&gt;&lt;/span&gt;&lt;span style=&quot;color:#e8bf6a;&quot;&gt;            &amp;lt;component &lt;/span&gt;&lt;span style=&quot;color:#bababa;&quot;&gt;id&lt;/span&gt;&lt;span style=&quot;color:#6a8759;&quot;&gt;=&quot;POWER_COMPONENT_BLUETOOTH&quot;&lt;/span&gt;&lt;span style=&quot;color:#e8bf6a;&quot;&gt;&amp;gt;&lt;/span&gt;on&lt;span style=&quot;color:#e8bf6a;&quot;&gt;&amp;lt;/component&amp;gt;&lt;br&gt;&lt;/span&gt;&lt;span style=&quot;color:#e8bf6a;&quot;&gt;            &amp;lt;component &lt;/span&gt;&lt;span style=&quot;color:#bababa;&quot;&gt;id&lt;/span&gt;&lt;span style=&quot;color:#6a8759;&quot;&gt;=&quot;POWER_COMPONENT_WIFI&quot;&lt;/span&gt;&lt;span style=&quot;color:#e8bf6a;&quot;&gt;&amp;gt;&lt;/span&gt;off&lt;span style=&quot;color:#e8bf6a;&quot;&gt;&amp;lt;/component&amp;gt;&lt;br&gt;&lt;/span&gt;&lt;span style=&quot;color:#e8bf6a;&quot;&gt;        &amp;lt;/policy&amp;gt;&lt;br&gt;&lt;/span&gt;&lt;span style=&quot;color:#e8bf6a;&quot;&gt;        &amp;lt;policy &lt;/span&gt;&lt;span style=&quot;color:#bababa;&quot;&gt;id&lt;/span&gt;&lt;span style=&quot;color:#6a8759;&quot;&gt;=&quot;geely_policy_off&quot;&lt;/span&gt;&lt;span style=&quot;color:#e8bf6a;&quot;&gt;&amp;gt;&lt;br&gt;&lt;/span&gt;&lt;span style=&quot;color:#e8bf6a;&quot;&gt;            &amp;lt;otherComponents &lt;/span&gt;&lt;span style=&quot;color:#bababa;&quot;&gt;behavior&lt;/span&gt;&lt;span style=&quot;color:#6a8759;&quot;&gt;=&quot;untouched&quot;&lt;/span&gt;&lt;span style=&quot;color:#e8bf6a;&quot;&gt;/&amp;gt;&lt;br&gt;&lt;/span&gt;&lt;span style=&quot;color:#e8bf6a;&quot;&gt;            &amp;lt;component &lt;/span&gt;&lt;span style=&quot;color:#bababa;&quot;&gt;id&lt;/span&gt;&lt;span style=&quot;color:#6a8759;&quot;&gt;=&quot;POWER_COMPONENT_AUDIO&quot;&lt;/span&gt;&lt;span style=&quot;color:#e8bf6a;&quot;&gt;&amp;gt;&lt;/span&gt;off&lt;span style=&quot;color:#e8bf6a;&quot;&gt;&amp;lt;/component&amp;gt;&lt;br&gt;&lt;/span&gt;&lt;span style=&quot;color:#e8bf6a;&quot;&gt;            &amp;lt;component &lt;/span&gt;&lt;span style=&quot;color:#bababa;&quot;&gt;id&lt;/span&gt;&lt;span style=&quot;color:#6a8759;&quot;&gt;=&quot;POWER_COMPONENT_BLUETOOTH&quot;&lt;/span&gt;&lt;span style=&quot;color:#e8bf6a;&quot;&gt;&amp;gt;&lt;/span&gt;off&lt;span style=&quot;color:#e8bf6a;&quot;&gt;&amp;lt;/component&amp;gt;&lt;br&gt;&lt;/span&gt;&lt;span style=&quot;color:#e8bf6a;&quot;&gt;            &amp;lt;component &lt;/span&gt;&lt;span style=&quot;color:#bababa;&quot;&gt;id&lt;/span&gt;&lt;span style=&quot;color:#6a8759;&quot;&gt;=&quot;POWER_COMPONENT_WIFI&quot;&lt;/span&gt;&lt;span style=&quot;color:#e8bf6a;&quot;&gt;&amp;gt;&lt;/span&gt;off&lt;span style=&quot;color:#e8bf6a;&quot;&gt;&amp;lt;/component&amp;gt;&lt;br&gt;&lt;/span&gt;&lt;span style=&quot;color:#e8bf6a;&quot;&gt;        &amp;lt;/policy&amp;gt;&lt;br&gt;&lt;/span&gt;&lt;span style=&quot;color:#e8bf6a;&quot;&gt;    &amp;lt;/policies&amp;gt;&lt;br&gt;&lt;/span&gt;&lt;span style=&quot;color:#e8bf6a;&quot;&gt;&lt;br&gt;&lt;/span&gt;&lt;span style=&quot;color:#e8bf6a;&quot;&gt;    &amp;lt;systemPolicyOverrides&amp;gt;&lt;br&gt;&lt;/span&gt;&lt;span style=&quot;color:#e8bf6a;&quot;&gt;        &amp;lt;policy &lt;/span&gt;&lt;span style=&quot;color:#bababa;&quot;&gt;id&lt;/span&gt;&lt;span style=&quot;color:#6a8759;&quot;&gt;=&quot;system_power_policy_no_user_interaction&quot;&lt;/span&gt;&lt;span style=&quot;color:#e8bf6a;&quot;&gt;&amp;gt;&lt;br&gt;&lt;/span&gt;&lt;span style=&quot;color:#808080;&quot;&gt;&amp;lt;!--            &amp;lt;component id=&quot;POWER_COMPONENT_AUDIO&quot;&amp;gt;off&amp;lt;/component&amp;gt;--&amp;gt;&lt;br&gt;&lt;/span&gt;&lt;span style=&quot;color:#808080;&quot;&gt;&amp;lt;!--            &amp;lt;component id=&quot;POWER_COMPONENT_WIFI&quot;&amp;gt;off&amp;lt;/component&amp;gt;--&amp;gt;&lt;br&gt;&lt;/span&gt;&lt;span style=&quot;color:#808080;&quot;&gt;            &lt;/span&gt;&lt;span style=&quot;color:#e8bf6a;&quot;&gt;&amp;lt;component &lt;/span&gt;&lt;span style=&quot;color:#bababa;&quot;&gt;id&lt;/span&gt;&lt;span style=&quot;color:#6a8759;&quot;&gt;=&quot;POWER_COMPONENT_BLUETOOTH&quot;&lt;/span&gt;&lt;span style=&quot;color:#e8bf6a;&quot;&gt;&amp;gt;&lt;/span&gt;off&lt;span style=&quot;color:#e8bf6a;&quot;&gt;&amp;lt;/component&amp;gt;&lt;br&gt;&lt;/span&gt;&lt;span style=&quot;color:#e8bf6a;&quot;&gt;        &amp;lt;/policy&amp;gt;&lt;br&gt;&lt;/span&gt;&lt;span style=&quot;color:#e8bf6a;&quot;&gt;    &amp;lt;/systemPolicyOverrides&amp;gt;&lt;br&gt;&lt;/span&gt;&lt;span style=&quot;color:#e8bf6a;&quot;&gt;&amp;lt;/powerPolicy&amp;gt;&lt;/span&gt;&lt;/pre&gt;&lt;/div&gt;" id="fDrU74i6XJgQ4S57dudR-1">
          <mxCell style="text;whiteSpace=wrap;html=1;" parent="1" vertex="1">
            <mxGeometry x="60" y="200" width="990" height="650" as="geometry" />
          </mxCell>
        </UserObject>
      </root>
    </mxGraphModel>
  </diagram>
  <diagram name="Page-1" id="2YBvvXClWsGukQMizWep">
    <mxGraphModel dx="1228" dy="188" grid="1" gridSize="10" guides="1" tooltips="1" connect="1" arrows="1" fold="1" page="1" pageScale="1" pageWidth="850" pageHeight="1100" math="0" shadow="0">
      <root>
        <mxCell id="0" />
        <mxCell id="1" parent="0" />
        <mxCell id="aM9ryv3xv72pqoxQDRHE-1" value="Vhal" style="shape=umlLifeline;perimeter=lifelinePerimeter;whiteSpace=wrap;html=1;container=0;dropTarget=0;collapsible=0;recursiveResize=0;outlineConnect=0;portConstraint=eastwest;newEdgeStyle={&quot;edgeStyle&quot;:&quot;elbowEdgeStyle&quot;,&quot;elbow&quot;:&quot;vertical&quot;,&quot;curved&quot;:0,&quot;rounded&quot;:0};" parent="1" vertex="1">
          <mxGeometry y="40" width="100" height="400" as="geometry" />
        </mxCell>
        <mxCell id="aM9ryv3xv72pqoxQDRHE-3" value="on hal" style="html=1;verticalAlign=bottom;startArrow=oval;endArrow=open;startSize=8;edgeStyle=elbowEdgeStyle;elbow=vertical;curved=0;rounded=0;endFill=0;" parent="aM9ryv3xv72pqoxQDRHE-1" target="aM9ryv3xv72pqoxQDRHE-1" edge="1">
          <mxGeometry relative="1" as="geometry">
            <mxPoint x="-20" y="80" as="sourcePoint" />
            <mxPoint x="44.5" y="80.33333333333337" as="targetPoint" />
          </mxGeometry>
        </mxCell>
        <mxCell id="aM9ryv3xv72pqoxQDRHE-5" value="CarPowerManagementService" style="shape=umlLifeline;perimeter=lifelinePerimeter;whiteSpace=wrap;html=1;container=0;dropTarget=0;collapsible=0;recursiveResize=0;outlineConnect=0;portConstraint=eastwest;newEdgeStyle={&quot;edgeStyle&quot;:&quot;elbowEdgeStyle&quot;,&quot;elbow&quot;:&quot;vertical&quot;,&quot;curved&quot;:0,&quot;rounded&quot;:0};" parent="1" vertex="1">
          <mxGeometry x="200" y="40" width="170" height="300" as="geometry" />
        </mxCell>
        <mxCell id="T4Njzg4Dmx6SJmbIld7S-1" value=":Object" style="shape=umlLifeline;perimeter=lifelinePerimeter;whiteSpace=wrap;html=1;container=1;dropTarget=0;collapsible=0;recursiveResize=0;outlineConnect=0;portConstraint=eastwest;newEdgeStyle={&quot;curved&quot;:0,&quot;rounded&quot;:0};" parent="1" vertex="1">
          <mxGeometry x="480" y="40" width="100" height="300" as="geometry" />
        </mxCell>
        <mxCell id="igTtvgTCfVSBcnDCFl33-1" value="carpowerpolicyd" style="shape=umlLifeline;perimeter=lifelinePerimeter;whiteSpace=wrap;html=1;container=1;dropTarget=0;collapsible=0;recursiveResize=0;outlineConnect=0;portConstraint=eastwest;newEdgeStyle={&quot;curved&quot;:0,&quot;rounded&quot;:0};" vertex="1" parent="1">
          <mxGeometry x="-200" y="40" width="100" height="760" as="geometry" />
        </mxCell>
        <mxCell id="igTtvgTCfVSBcnDCFl33-5" value="" style="html=1;points=[[0,0,0,0,5],[0,1,0,0,-5],[1,0,0,0,5],[1,1,0,0,-5]];perimeter=orthogonalPerimeter;outlineConnect=0;targetShapes=umlLifeline;portConstraint=eastwest;newEdgeStyle={&quot;curved&quot;:0,&quot;rounded&quot;:0};" vertex="1" parent="igTtvgTCfVSBcnDCFl33-1">
          <mxGeometry x="45" y="100" width="10" height="80" as="geometry" />
        </mxCell>
        <mxCell id="taISuvh9gQwNRkh_FGRb-1" value="mPolicyManager.init" style="html=1;verticalAlign=bottom;endArrow=block;curved=0;rounded=0;sourcePerimeterSpacing=0;exitX=1;exitY=0;exitDx=0;exitDy=5;exitPerimeter=0;" edge="1" parent="igTtvgTCfVSBcnDCFl33-1" source="igTtvgTCfVSBcnDCFl33-5" target="ZRzNROBUTI5oBUFZgSuc-2">
          <mxGeometry width="80" relative="1" as="geometry">
            <mxPoint x="55" y="115" as="sourcePoint" />
            <mxPoint x="140" y="115" as="targetPoint" />
            <Array as="points">
              <mxPoint x="100" y="105" />
              <mxPoint x="100" y="140" />
            </Array>
          </mxGeometry>
        </mxCell>
        <mxCell id="ZRzNROBUTI5oBUFZgSuc-2" value="" style="html=1;points=[[0,0,0,0,5],[0,1,0,0,-5],[1,0,0,0,5],[1,1,0,0,-5]];perimeter=orthogonalPerimeter;outlineConnect=0;targetShapes=umlLifeline;portConstraint=eastwest;newEdgeStyle={&quot;curved&quot;:0,&quot;rounded&quot;:0};" vertex="1" parent="igTtvgTCfVSBcnDCFl33-1">
          <mxGeometry x="50" y="123" width="10" height="37" as="geometry" />
        </mxCell>
        <mxCell id="igTtvgTCfVSBcnDCFl33-2" value="on early_hal" style="html=1;verticalAlign=bottom;startArrow=oval;endArrow=open;edgeStyle=elbowEdgeStyle;elbow=vertical;curved=0;rounded=0;endFill=0;" edge="1" parent="1" target="igTtvgTCfVSBcnDCFl33-1">
          <mxGeometry relative="1" as="geometry">
            <mxPoint x="-230" y="110" as="sourcePoint" />
            <mxPoint x="-160" y="110" as="targetPoint" />
          </mxGeometry>
        </mxCell>
        <mxCell id="igTtvgTCfVSBcnDCFl33-3" value="SystemServer.startOtherServices" style="html=1;verticalAlign=bottom;startArrow=oval;endArrow=block;startSize=8;edgeStyle=elbowEdgeStyle;elbow=vertical;curved=0;rounded=0;" edge="1" parent="1">
          <mxGeometry relative="1" as="geometry">
            <mxPoint x="150" y="130" as="sourcePoint" />
            <mxPoint x="305" y="130" as="targetPoint" />
          </mxGeometry>
        </mxCell>
      </root>
    </mxGraphModel>
  </diagram>
  <diagram id="gTz8qsrZmqEnXo4zp3Fp" name="第 4 页">
    <mxGraphModel dx="1375" dy="272" grid="1" gridSize="10" guides="1" tooltips="1" connect="1" arrows="1" fold="1" page="1" pageScale="1" pageWidth="827" pageHeight="1169" math="0" shadow="0">
      <root>
        <mxCell id="0" />
        <mxCell id="1" parent="0" />
        <mxCell id="O9_MQX3PIC3q_C-2q7th-1" value=":Object" style="shape=umlLifeline;perimeter=lifelinePerimeter;whiteSpace=wrap;html=1;container=0;dropTarget=0;collapsible=0;recursiveResize=0;outlineConnect=0;portConstraint=eastwest;newEdgeStyle={&quot;edgeStyle&quot;:&quot;elbowEdgeStyle&quot;,&quot;elbow&quot;:&quot;vertical&quot;,&quot;curved&quot;:0,&quot;rounded&quot;:0};" vertex="1" parent="1">
          <mxGeometry x="20" y="20" width="100" height="300" as="geometry" />
        </mxCell>
        <mxCell id="O9_MQX3PIC3q_C-2q7th-2" value="" style="html=1;points=[];perimeter=orthogonalPerimeter;outlineConnect=0;targetShapes=umlLifeline;portConstraint=eastwest;newEdgeStyle={&quot;edgeStyle&quot;:&quot;elbowEdgeStyle&quot;,&quot;elbow&quot;:&quot;vertical&quot;,&quot;curved&quot;:0,&quot;rounded&quot;:0};" vertex="1" parent="O9_MQX3PIC3q_C-2q7th-1">
          <mxGeometry x="20" y="70" width="10" height="190" as="geometry" />
        </mxCell>
        <mxCell id="O9_MQX3PIC3q_C-2q7th-3" value="dispatch" style="html=1;verticalAlign=bottom;startArrow=oval;endArrow=block;startSize=8;edgeStyle=elbowEdgeStyle;elbow=vertical;curved=0;rounded=0;" edge="1" parent="O9_MQX3PIC3q_C-2q7th-1" target="O9_MQX3PIC3q_C-2q7th-2">
          <mxGeometry relative="1" as="geometry">
            <mxPoint x="-15" y="70" as="sourcePoint" />
          </mxGeometry>
        </mxCell>
        <mxCell id="O9_MQX3PIC3q_C-2q7th-4" value="" style="html=1;points=[];perimeter=orthogonalPerimeter;outlineConnect=0;targetShapes=umlLifeline;portConstraint=eastwest;newEdgeStyle={&quot;edgeStyle&quot;:&quot;elbowEdgeStyle&quot;,&quot;elbow&quot;:&quot;vertical&quot;,&quot;curved&quot;:0,&quot;rounded&quot;:0};" vertex="1" parent="O9_MQX3PIC3q_C-2q7th-1">
          <mxGeometry x="50" y="120" width="10" height="80" as="geometry" />
        </mxCell>
        <mxCell id="O9_MQX3PIC3q_C-2q7th-5" value=":Object" style="shape=umlLifeline;perimeter=lifelinePerimeter;whiteSpace=wrap;html=1;container=0;dropTarget=0;collapsible=0;recursiveResize=0;outlineConnect=0;portConstraint=eastwest;newEdgeStyle={&quot;edgeStyle&quot;:&quot;elbowEdgeStyle&quot;,&quot;elbow&quot;:&quot;vertical&quot;,&quot;curved&quot;:0,&quot;rounded&quot;:0};" vertex="1" parent="1">
          <mxGeometry x="200" y="20" width="100" height="300" as="geometry" />
        </mxCell>
        <mxCell id="O9_MQX3PIC3q_C-2q7th-6" value="" style="html=1;points=[];perimeter=orthogonalPerimeter;outlineConnect=0;targetShapes=umlLifeline;portConstraint=eastwest;newEdgeStyle={&quot;edgeStyle&quot;:&quot;elbowEdgeStyle&quot;,&quot;elbow&quot;:&quot;vertical&quot;,&quot;curved&quot;:0,&quot;rounded&quot;:0};" vertex="1" parent="O9_MQX3PIC3q_C-2q7th-5">
          <mxGeometry x="45" y="80" width="10" height="170" as="geometry" />
        </mxCell>
        <mxCell id="O9_MQX3PIC3q_C-2q7th-7" value="dispatch" style="html=1;verticalAlign=bottom;endArrow=block;edgeStyle=elbowEdgeStyle;elbow=vertical;curved=0;rounded=0;" edge="1" parent="1" source="O9_MQX3PIC3q_C-2q7th-2" target="O9_MQX3PIC3q_C-2q7th-6">
          <mxGeometry relative="1" as="geometry">
            <mxPoint x="175" y="110" as="sourcePoint" />
            <Array as="points">
              <mxPoint x="160" y="100" />
            </Array>
          </mxGeometry>
        </mxCell>
        <mxCell id="O9_MQX3PIC3q_C-2q7th-8" value="return" style="html=1;verticalAlign=bottom;endArrow=open;dashed=1;endSize=8;edgeStyle=elbowEdgeStyle;elbow=vertical;curved=0;rounded=0;" edge="1" parent="1" source="O9_MQX3PIC3q_C-2q7th-6" target="O9_MQX3PIC3q_C-2q7th-2">
          <mxGeometry relative="1" as="geometry">
            <mxPoint x="175" y="185" as="targetPoint" />
            <Array as="points">
              <mxPoint x="170" y="260" />
            </Array>
          </mxGeometry>
        </mxCell>
        <mxCell id="O9_MQX3PIC3q_C-2q7th-9" value="callback" style="html=1;verticalAlign=bottom;endArrow=block;edgeStyle=elbowEdgeStyle;elbow=vertical;curved=0;rounded=0;" edge="1" parent="1" source="O9_MQX3PIC3q_C-2q7th-6" target="O9_MQX3PIC3q_C-2q7th-4">
          <mxGeometry relative="1" as="geometry">
            <mxPoint x="155" y="140" as="sourcePoint" />
            <Array as="points">
              <mxPoint x="170" y="140" />
            </Array>
          </mxGeometry>
        </mxCell>
        <mxCell id="O9_MQX3PIC3q_C-2q7th-10" value="return" style="html=1;verticalAlign=bottom;endArrow=open;dashed=1;endSize=8;edgeStyle=elbowEdgeStyle;elbow=vertical;curved=0;rounded=0;" edge="1" parent="1" source="O9_MQX3PIC3q_C-2q7th-4" target="O9_MQX3PIC3q_C-2q7th-6">
          <mxGeometry relative="1" as="geometry">
            <mxPoint x="155" y="215" as="targetPoint" />
            <Array as="points">
              <mxPoint x="160" y="210" />
            </Array>
          </mxGeometry>
        </mxCell>
      </root>
    </mxGraphModel>
  </diagram>
  <diagram id="tXgN5IKQt6F43_wf0BQ5" name="第 5 页">
    <mxGraphModel dx="794" dy="394" grid="1" gridSize="10" guides="1" tooltips="1" connect="1" arrows="1" fold="1" page="1" pageScale="1" pageWidth="827" pageHeight="1169" math="0" shadow="0">
      <root>
        <mxCell id="0" />
        <mxCell id="1" parent="0" />
        <UserObject label="" plantUmlData="{&quot;data&quot;:&quot;@startuml\n\nactivate carpowerpolicyd\n -&gt; carpowerpolicyd: on early_hal\n\nactivate Vhal\n -&gt; Vhal: on hal\n\nactivate CarPowerManagementService\n -&gt; CarPowerManagementService: SystemServer.startOtherServices\n\ncarpowerpolicyd-&gt;carpowerpolicyd:mPolicyManager.init\n\nactivate A\nA -&gt; B: &lt;&lt; createRequest &gt;&gt;\nactivate B\n\nB -&gt; C: DoWork\nactivate C\nC --&gt; B: WorkDone\ndestroy C\n\nB --&gt; A: RequestCreated\ndeactivate B\n\nA -&gt; User: Done\ndeactivate A\n\n@enduml\n&quot;,&quot;format&quot;:&quot;svg&quot;}" id="BiTiPprM4n2f-Xjsj7Hs-1">
          <mxCell style="shape=image;noLabel=1;verticalAlign=top;aspect=fixed;imageAspect=0;image=data:image/svg+xml,PD94bWwgdmVyc2lvbj0iMS4wIiBlbmNvZGluZz0idXMtYXNjaWkiIHN0YW5kYWxvbmU9Im5vIj8+PHN2ZyB4bWxucz0iaHR0cDovL3d3dy53My5vcmcvMjAwMC9zdmciIHhtbG5zOnhsaW5rPSJodHRwOi8vd3d3LnczLm9yZy8xOTk5L3hsaW5rIiBjb250ZW50U3R5bGVUeXBlPSJ0ZXh0L2NzcyIgaGVpZ2h0PSIzNTNweCIgcHJlc2VydmVBc3BlY3RSYXRpbz0ibm9uZSIgc3R5bGU9IndpZHRoOjc4OXB4O2hlaWdodDozNTNweDtiYWNrZ3JvdW5kOiNGRkZGRkY7IiB2ZXJzaW9uPSIxLjEiIHZpZXdCb3g9IjAgMCA3ODkgMzUzIiB3aWR0aD0iNzg5cHgiIHpvb21BbmRQYW49Im1hZ25pZnkiPjxkZWZzLz48Zz48cmVjdCBmaWxsPSIjRkZGRkZGIiBoZWlnaHQ9IjI2NS4yMjY2IiBzdHlsZT0ic3Ryb2tlOiMxODE4MTg7c3Ryb2tlLXdpZHRoOjEuMDsiIHdpZHRoPSIxMCIgeD0iMTAxIiB5PSI0NC45ODQ0Ii8+PHJlY3QgZmlsbD0iI0ZGRkZGRiIgaGVpZ2h0PSIyNDUuMzEyNSIgc3R5bGU9InN0cm9rZTojMTgxODE4O3N0cm9rZS13aWR0aDoxLjA7IiB3aWR0aD0iMTAiIHg9IjI1MSIgeT0iNjQuODk4NCIvPjxyZWN0IGZpbGw9IiNGRkZGRkYiIGhlaWdodD0iMjE3LjM5ODQiIHN0eWxlPSJzdHJva2U6IzE4MTgxODtzdHJva2Utd2lkdGg6MS4wOyIgd2lkdGg9IjEwIiB4PSIzNzcuNSIgeT0iOTIuODEyNSIvPjxyZWN0IGZpbGw9IiNGRkZGRkYiIGhlaWdodD0iMTQ0LjU3MDMiIHN0eWxlPSJzdHJva2U6IzE4MTgxODtzdHJva2Utd2lkdGg6MS4wOyIgd2lkdGg9IjEwIiB4PSI0OTMuNSIgeT0iMTU2LjY0MDYiLz48cmVjdCBmaWxsPSIjRkZGRkZGIiBoZWlnaHQ9IjgzLjc0MjIiIHN0eWxlPSJzdHJva2U6IzE4MTgxODtzdHJva2Utd2lkdGg6MS4wOyIgd2lkdGg9IjEwIiB4PSI2MjUuNSIgeT0iMTg5LjU1NDciLz48cmVjdCBmaWxsPSIjRkZGRkZGIiBoZWlnaHQ9IjI3LjkxNDEiIHN0eWxlPSJzdHJva2U6IzE4MTgxODtzdHJva2Utd2lkdGg6MS4wOyIgd2lkdGg9IjEwIiB4PSI3MTUuNSIgeT0iMjE3LjQ2ODgiLz48bGluZSBzdHlsZT0ic3Ryb2tlOiMxODE4MTg7c3Ryb2tlLXdpZHRoOjAuNTtzdHJva2UtZGFzaGFycmF5OjUuMCw1LjA7IiB4MT0iMTA2IiB4Mj0iMTA2IiB5MT0iMzQuOTg0NCIgeTI9IjMxOS4yMTA5Ii8+PGxpbmUgc3R5bGU9InN0cm9rZTojMTgxODE4O3N0cm9rZS13aWR0aDowLjU7c3Ryb2tlLWRhc2hhcnJheTo1LjAsNS4wOyIgeDE9IjI1NiIgeDI9IjI1NiIgeTE9IjM0Ljk4NDQiIHkyPSIzMTkuMjEwOSIvPjxsaW5lIHN0eWxlPSJzdHJva2U6IzE4MTgxODtzdHJva2Utd2lkdGg6MC41O3N0cm9rZS1kYXNoYXJyYXk6NS4wLDUuMDsiIHgxPSIzODIiIHgyPSIzODIiIHkxPSIzNC45ODQ0IiB5Mj0iMzE5LjIxMDkiLz48bGluZSBzdHlsZT0ic3Ryb2tlOiMxODE4MTg7c3Ryb2tlLXdpZHRoOjAuNTtzdHJva2UtZGFzaGFycmF5OjUuMCw1LjA7IiB4MT0iNDk4IiB4Mj0iNDk4IiB5MT0iMzQuOTg0NCIgeTI9IjMxOS4yMTA5Ii8+PGxpbmUgc3R5bGU9InN0cm9rZTojMTgxODE4O3N0cm9rZS13aWR0aDowLjU7c3Ryb2tlLWRhc2hhcnJheTo1LjAsNS4wOyIgeDE9IjYzMCIgeDI9IjYzMCIgeTE9IjM0Ljk4NDQiIHkyPSIzMTkuMjEwOSIvPjxsaW5lIHN0eWxlPSJzdHJva2U6IzE4MTgxODtzdHJva2Utd2lkdGg6MC41O3N0cm9rZS1kYXNoYXJyYXk6NS4wLDUuMDsiIHgxPSI3MjAiIHgyPSI3MjAiIHkxPSIzNC45ODQ0IiB5Mj0iMzE5LjIxMDkiLz48bGluZSBzdHlsZT0ic3Ryb2tlOiMxODE4MTg7c3Ryb2tlLXdpZHRoOjAuNTtzdHJva2UtZGFzaGFycmF5OjUuMCw1LjA7IiB4MT0iNzYyIiB4Mj0iNzYyIiB5MT0iMzQuOTg0NCIgeTI9IjMxOS4yMTA5Ii8+PHJlY3QgZmlsbD0iI0UyRTJGMCIgaGVpZ2h0PSIyOC45ODQ0IiByeD0iMi41IiByeT0iMi41IiBzdHlsZT0ic3Ryb2tlOiMxODE4MTg7c3Ryb2tlLXdpZHRoOjAuNTsiIHdpZHRoPSIxMjAiIHg9IjQ2IiB5PSI1Ii8+PHRleHQgZmlsbD0iIzAwMDAwMCIgZm9udC1mYW1pbHk9InNhbnMtc2VyaWYiIGZvbnQtc2l6ZT0iMTQiIGxlbmd0aEFkanVzdD0ic3BhY2luZyIgdGV4dExlbmd0aD0iMTA2IiB4PSI1MyIgeT0iMjUuMjM0NCI+Y2FycG93ZXJwb2xpY3lkPC90ZXh0PjxyZWN0IGZpbGw9IiNFMkUyRjAiIGhlaWdodD0iMjguOTg0NCIgcng9IjIuNSIgcnk9IjIuNSIgc3R5bGU9InN0cm9rZTojMTgxODE4O3N0cm9rZS13aWR0aDowLjU7IiB3aWR0aD0iMTIwIiB4PSI0NiIgeT0iMzE4LjIxMDkiLz48dGV4dCBmaWxsPSIjMDAwMDAwIiBmb250LWZhbWlseT0ic2Fucy1zZXJpZiIgZm9udC1zaXplPSIxNCIgbGVuZ3RoQWRqdXN0PSJzcGFjaW5nIiB0ZXh0TGVuZ3RoPSIxMDYiIHg9IjUzIiB5PSIzMzguNDQ1MyI+Y2FycG93ZXJwb2xpY3lkPC90ZXh0PjxyZWN0IGZpbGw9IiNFMkUyRjAiIGhlaWdodD0iMjguOTg0NCIgcng9IjIuNSIgcnk9IjIuNSIgc3R5bGU9InN0cm9rZTojMTgxODE4O3N0cm9rZS13aWR0aDowLjU7IiB3aWR0aD0iNDIiIHg9IjIzNSIgeT0iNSIvPjx0ZXh0IGZpbGw9IiMwMDAwMDAiIGZvbnQtZmFtaWx5PSJzYW5zLXNlcmlmIiBmb250LXNpemU9IjE0IiBsZW5ndGhBZGp1c3Q9InNwYWNpbmciIHRleHRMZW5ndGg9IjI4IiB4PSIyNDIiIHk9IjI1LjIzNDQiPlZoYWw8L3RleHQ+PHJlY3QgZmlsbD0iI0UyRTJGMCIgaGVpZ2h0PSIyOC45ODQ0IiByeD0iMi41IiByeT0iMi41IiBzdHlsZT0ic3Ryb2tlOiMxODE4MTg7c3Ryb2tlLXdpZHRoOjAuNTsiIHdpZHRoPSI0MiIgeD0iMjM1IiB5PSIzMTguMjEwOSIvPjx0ZXh0IGZpbGw9IiMwMDAwMDAiIGZvbnQtZmFtaWx5PSJzYW5zLXNlcmlmIiBmb250LXNpemU9IjE0IiBsZW5ndGhBZGp1c3Q9InNwYWNpbmciIHRleHRMZW5ndGg9IjI4IiB4PSIyNDIiIHk9IjMzOC40NDUzIj5WaGFsPC90ZXh0PjxyZWN0IGZpbGw9IiNFMkUyRjAiIGhlaWdodD0iMjguOTg0NCIgcng9IjIuNSIgcnk9IjIuNSIgc3R5bGU9InN0cm9rZTojMTgxODE4O3N0cm9rZS13aWR0aDowLjU7IiB3aWR0aD0iMTkxIiB4PSIyODciIHk9IjUiLz48dGV4dCBmaWxsPSIjMDAwMDAwIiBmb250LWZhbWlseT0ic2Fucy1zZXJpZiIgZm9udC1zaXplPSIxNCIgbGVuZ3RoQWRqdXN0PSJzcGFjaW5nIiB0ZXh0TGVuZ3RoPSIxNzciIHg9IjI5NCIgeT0iMjUuMjM0NCI+Q2FyUG93ZXJNYW5hZ2VtZW50U2VydmljZTwvdGV4dD48cmVjdCBmaWxsPSIjRTJFMkYwIiBoZWlnaHQ9IjI4Ljk4NDQiIHJ4PSIyLjUiIHJ5PSIyLjUiIHN0eWxlPSJzdHJva2U6IzE4MTgxODtzdHJva2Utd2lkdGg6MC41OyIgd2lkdGg9IjE5MSIgeD0iMjg3IiB5PSIzMTguMjEwOSIvPjx0ZXh0IGZpbGw9IiMwMDAwMDAiIGZvbnQtZmFtaWx5PSJzYW5zLXNlcmlmIiBmb250LXNpemU9IjE0IiBsZW5ndGhBZGp1c3Q9InNwYWNpbmciIHRleHRMZW5ndGg9IjE3NyIgeD0iMjk0IiB5PSIzMzguNDQ1MyI+Q2FyUG93ZXJNYW5hZ2VtZW50U2VydmljZTwvdGV4dD48cmVjdCBmaWxsPSIjRTJFMkYwIiBoZWlnaHQ9IjI4Ljk4NDQiIHJ4PSIyLjUiIHJ5PSIyLjUiIHN0eWxlPSJzdHJva2U6IzE4MTgxODtzdHJva2Utd2lkdGg6MC41OyIgd2lkdGg9IjIxIiB4PSI0ODgiIHk9IjUiLz48dGV4dCBmaWxsPSIjMDAwMDAwIiBmb250LWZhbWlseT0ic2Fucy1zZXJpZiIgZm9udC1zaXplPSIxNCIgbGVuZ3RoQWRqdXN0PSJzcGFjaW5nIiB0ZXh0TGVuZ3RoPSI3IiB4PSI0OTUiIHk9IjI1LjIzNDQiPkE8L3RleHQ+PHJlY3QgZmlsbD0iI0UyRTJGMCIgaGVpZ2h0PSIyOC45ODQ0IiByeD0iMi41IiByeT0iMi41IiBzdHlsZT0ic3Ryb2tlOiMxODE4MTg7c3Ryb2tlLXdpZHRoOjAuNTsiIHdpZHRoPSIyMSIgeD0iNDg4IiB5PSIzMTguMjEwOSIvPjx0ZXh0IGZpbGw9IiMwMDAwMDAiIGZvbnQtZmFtaWx5PSJzYW5zLXNlcmlmIiBmb250LXNpemU9IjE0IiBsZW5ndGhBZGp1c3Q9InNwYWNpbmciIHRleHRMZW5ndGg9IjciIHg9IjQ5NSIgeT0iMzM4LjQ0NTMiPkE8L3RleHQ+PHJlY3QgZmlsbD0iI0UyRTJGMCIgaGVpZ2h0PSIyOC45ODQ0IiByeD0iMi41IiByeT0iMi41IiBzdHlsZT0ic3Ryb2tlOiMxODE4MTg7c3Ryb2tlLXdpZHRoOjAuNTsiIHdpZHRoPSIyMSIgeD0iNjIwIiB5PSI1Ii8+PHRleHQgZmlsbD0iIzAwMDAwMCIgZm9udC1mYW1pbHk9InNhbnMtc2VyaWYiIGZvbnQtc2l6ZT0iMTQiIGxlbmd0aEFkanVzdD0ic3BhY2luZyIgdGV4dExlbmd0aD0iNyIgeD0iNjI3IiB5PSIyNS4yMzQ0Ij5CPC90ZXh0PjxyZWN0IGZpbGw9IiNFMkUyRjAiIGhlaWdodD0iMjguOTg0NCIgcng9IjIuNSIgcnk9IjIuNSIgc3R5bGU9InN0cm9rZTojMTgxODE4O3N0cm9rZS13aWR0aDowLjU7IiB3aWR0aD0iMjEiIHg9IjYyMCIgeT0iMzE4LjIxMDkiLz48dGV4dCBmaWxsPSIjMDAwMDAwIiBmb250LWZhbWlseT0ic2Fucy1zZXJpZiIgZm9udC1zaXplPSIxNCIgbGVuZ3RoQWRqdXN0PSJzcGFjaW5nIiB0ZXh0TGVuZ3RoPSI3IiB4PSI2MjciIHk9IjMzOC40NDUzIj5CPC90ZXh0PjxyZWN0IGZpbGw9IiNFMkUyRjAiIGhlaWdodD0iMjguOTg0NCIgcng9IjIuNSIgcnk9IjIuNSIgc3R5bGU9InN0cm9rZTojMTgxODE4O3N0cm9rZS13aWR0aDowLjU7IiB3aWR0aD0iMjEiIHg9IjcxMCIgeT0iNSIvPjx0ZXh0IGZpbGw9IiMwMDAwMDAiIGZvbnQtZmFtaWx5PSJzYW5zLXNlcmlmIiBmb250LXNpemU9IjE0IiBsZW5ndGhBZGp1c3Q9InNwYWNpbmciIHRleHRMZW5ndGg9IjciIHg9IjcxNyIgeT0iMjUuMjM0NCI+QzwvdGV4dD48cmVjdCBmaWxsPSIjRTJFMkYwIiBoZWlnaHQ9IjI4Ljk4NDQiIHJ4PSIyLjUiIHJ5PSIyLjUiIHN0eWxlPSJzdHJva2U6IzE4MTgxODtzdHJva2Utd2lkdGg6MC41OyIgd2lkdGg9IjIxIiB4PSI3MTAiIHk9IjMxOC4yMTA5Ii8+PHRleHQgZmlsbD0iIzAwMDAwMCIgZm9udC1mYW1pbHk9InNhbnMtc2VyaWYiIGZvbnQtc2l6ZT0iMTQiIGxlbmd0aEFkanVzdD0ic3BhY2luZyIgdGV4dExlbmd0aD0iNyIgeD0iNzE3IiB5PSIzMzguNDQ1MyI+QzwvdGV4dD48cmVjdCBmaWxsPSIjRTJFMkYwIiBoZWlnaHQ9IjI4Ljk4NDQiIHJ4PSIyLjUiIHJ5PSIyLjUiIHN0eWxlPSJzdHJva2U6IzE4MTgxODtzdHJva2Utd2lkdGg6MC41OyIgd2lkdGg9IjQyIiB4PSI3NDEiIHk9IjUiLz48dGV4dCBmaWxsPSIjMDAwMDAwIiBmb250LWZhbWlseT0ic2Fucy1zZXJpZiIgZm9udC1zaXplPSIxNCIgbGVuZ3RoQWRqdXN0PSJzcGFjaW5nIiB0ZXh0TGVuZ3RoPSIyOCIgeD0iNzQ4IiB5PSIyNS4yMzQ0Ij5Vc2VyPC90ZXh0PjxyZWN0IGZpbGw9IiNFMkUyRjAiIGhlaWdodD0iMjguOTg0NCIgcng9IjIuNSIgcnk9IjIuNSIgc3R5bGU9InN0cm9rZTojMTgxODE4O3N0cm9rZS13aWR0aDowLjU7IiB3aWR0aD0iNDIiIHg9Ijc0MSIgeT0iMzE4LjIxMDkiLz48dGV4dCBmaWxsPSIjMDAwMDAwIiBmb250LWZhbWlseT0ic2Fucy1zZXJpZiIgZm9udC1zaXplPSIxNCIgbGVuZ3RoQWRqdXN0PSJzcGFjaW5nIiB0ZXh0TGVuZ3RoPSIyOCIgeD0iNzQ4IiB5PSIzMzguNDQ1MyI+VXNlcjwvdGV4dD48cmVjdCBmaWxsPSIjRkZGRkZGIiBoZWlnaHQ9IjI2NS4yMjY2IiBzdHlsZT0ic3Ryb2tlOiMxODE4MTg7c3Ryb2tlLXdpZHRoOjEuMDsiIHdpZHRoPSIxMCIgeD0iMTAxIiB5PSI0NC45ODQ0Ii8+PHJlY3QgZmlsbD0iI0ZGRkZGRiIgaGVpZ2h0PSIyNDUuMzEyNSIgc3R5bGU9InN0cm9rZTojMTgxODE4O3N0cm9rZS13aWR0aDoxLjA7IiB3aWR0aD0iMTAiIHg9IjI1MSIgeT0iNjQuODk4NCIvPjxyZWN0IGZpbGw9IiNGRkZGRkYiIGhlaWdodD0iMjE3LjM5ODQiIHN0eWxlPSJzdHJva2U6IzE4MTgxODtzdHJva2Utd2lkdGg6MS4wOyIgd2lkdGg9IjEwIiB4PSIzNzcuNSIgeT0iOTIuODEyNSIvPjxyZWN0IGZpbGw9IiNGRkZGRkYiIGhlaWdodD0iMTQ0LjU3MDMiIHN0eWxlPSJzdHJva2U6IzE4MTgxODtzdHJva2Utd2lkdGg6MS4wOyIgd2lkdGg9IjEwIiB4PSI0OTMuNSIgeT0iMTU2LjY0MDYiLz48cmVjdCBmaWxsPSIjRkZGRkZGIiBoZWlnaHQ9IjgzLjc0MjIiIHN0eWxlPSJzdHJva2U6IzE4MTgxODtzdHJva2Utd2lkdGg6MS4wOyIgd2lkdGg9IjEwIiB4PSI2MjUuNSIgeT0iMTg5LjU1NDciLz48cmVjdCBmaWxsPSIjRkZGRkZGIiBoZWlnaHQ9IjI3LjkxNDEiIHN0eWxlPSJzdHJva2U6IzE4MTgxODtzdHJva2Utd2lkdGg6MS4wOyIgd2lkdGg9IjEwIiB4PSI3MTUuNSIgeT0iMjE3LjQ2ODgiLz48cG9seWdvbiBmaWxsPSIjMTgxODE4IiBwb2ludHM9Ijg5LDYwLjg5ODQsOTksNjQuODk4NCw4OSw2OC44OTg0LDkzLDY0Ljg5ODQiIHN0eWxlPSJzdHJva2U6IzE4MTgxODtzdHJva2Utd2lkdGg6MS4wOyIvPjxsaW5lIHN0eWxlPSJzdHJva2U6IzE4MTgxODtzdHJva2Utd2lkdGg6MS4wOyIgeDE9IjAiIHgyPSI5NSIgeTE9IjY0Ljg5ODQiIHkyPSI2NC44OTg0Ii8+PHRleHQgZmlsbD0iIzAwMDAwMCIgZm9udC1mYW1pbHk9InNhbnMtc2VyaWYiIGZvbnQtc2l6ZT0iMTMiIGxlbmd0aEFkanVzdD0ic3BhY2luZyIgdGV4dExlbmd0aD0iODIiIHg9IjciIHk9IjYxLjI3MzQiPm9uIGVhcmx5X2hhbDwvdGV4dD48cG9seWdvbiBmaWxsPSIjMTgxODE4IiBwb2ludHM9IjIzOSw4OC44MTI1LDI0OSw5Mi44MTI1LDIzOSw5Ni44MTI1LDI0Myw5Mi44MTI1IiBzdHlsZT0ic3Ryb2tlOiMxODE4MTg7c3Ryb2tlLXdpZHRoOjEuMDsiLz48bGluZSBzdHlsZT0ic3Ryb2tlOiMxODE4MTg7c3Ryb2tlLXdpZHRoOjEuMDsiIHgxPSIwIiB4Mj0iMjQ1IiB5MT0iOTIuODEyNSIgeTI9IjkyLjgxMjUiLz48dGV4dCBmaWxsPSIjMDAwMDAwIiBmb250LWZhbWlseT0ic2Fucy1zZXJpZiIgZm9udC1zaXplPSIxMyIgbGVuZ3RoQWRqdXN0PSJzcGFjaW5nIiB0ZXh0TGVuZ3RoPSI0MSIgeD0iNyIgeT0iODkuMTg3NSI+b24gaGFsPC90ZXh0Pjxwb2x5Z29uIGZpbGw9IiMxODE4MTgiIHBvaW50cz0iMzY1LjUsMTE2LjcyNjYsMzc1LjUsMTIwLjcyNjYsMzY1LjUsMTI0LjcyNjYsMzY5LjUsMTIwLjcyNjYiIHN0eWxlPSJzdHJva2U6IzE4MTgxODtzdHJva2Utd2lkdGg6MS4wOyIvPjxsaW5lIHN0eWxlPSJzdHJva2U6IzE4MTgxODtzdHJva2Utd2lkdGg6MS4wOyIgeDE9IjAiIHgyPSIzNzEuNSIgeTE9IjEyMC43MjY2IiB5Mj0iMTIwLjcyNjYiLz48dGV4dCBmaWxsPSIjMDAwMDAwIiBmb250LWZhbWlseT0ic2Fucy1zZXJpZiIgZm9udC1zaXplPSIxMyIgbGVuZ3RoQWRqdXN0PSJzcGFjaW5nIiB0ZXh0TGVuZ3RoPSIyMTAiIHg9IjciIHk9IjExNy4xMDE2Ij5TeXN0ZW1TZXJ2ZXIuc3RhcnRPdGhlclNlcnZpY2VzPC90ZXh0PjxsaW5lIHN0eWxlPSJzdHJva2U6IzE4MTgxODtzdHJva2Utd2lkdGg6MS4wOyIgeDE9IjExMSIgeDI9IjE1OCIgeTE9IjE0My42NDA2IiB5Mj0iMTQzLjY0MDYiLz48bGluZSBzdHlsZT0ic3Ryb2tlOiMxODE4MTg7c3Ryb2tlLXdpZHRoOjEuMDsiIHgxPSIxNTgiIHgyPSIxNTgiIHkxPSIxNDMuNjQwNiIgeTI9IjE1Ni42NDA2Ii8+PGxpbmUgc3R5bGU9InN0cm9rZTojMTgxODE4O3N0cm9rZS13aWR0aDoxLjA7IiB4MT0iMTE3IiB4Mj0iMTU4IiB5MT0iMTU2LjY0MDYiIHkyPSIxNTYuNjQwNiIvPjxwb2x5Z29uIGZpbGw9IiMxODE4MTgiIHBvaW50cz0iMTI3LDE1Mi42NDA2LDExNywxNTYuNjQwNiwxMjcsMTYwLjY0MDYsMTIzLDE1Ni42NDA2IiBzdHlsZT0ic3Ryb2tlOiMxODE4MTg7c3Ryb2tlLXdpZHRoOjEuMDsiLz48dGV4dCBmaWxsPSIjMDAwMDAwIiBmb250LWZhbWlseT0ic2Fucy1zZXJpZiIgZm9udC1zaXplPSIxMyIgbGVuZ3RoQWRqdXN0PSJzcGFjaW5nIiB0ZXh0TGVuZ3RoPSIxMjYiIHg9IjEyMyIgeT0iMTQwLjAxNTYiPm1Qb2xpY3lNYW5hZ2VyLmluaXQ8L3RleHQ+PHBvbHlnb24gZmlsbD0iIzE4MTgxOCIgcG9pbnRzPSI2MTMuNSwxODUuNTU0Nyw2MjMuNSwxODkuNTU0Nyw2MTMuNSwxOTMuNTU0Nyw2MTcuNSwxODkuNTU0NyIgc3R5bGU9InN0cm9rZTojMTgxODE4O3N0cm9rZS13aWR0aDoxLjA7Ii8+PGxpbmUgc3R5bGU9InN0cm9rZTojMTgxODE4O3N0cm9rZS13aWR0aDoxLjA7IiB4MT0iNTAzLjUiIHgyPSI2MTkuNSIgeTE9IjE4OS41NTQ3IiB5Mj0iMTg5LjU1NDciLz48dGV4dCBmaWxsPSIjMDAwMDAwIiBmb250LWZhbWlseT0ic2Fucy1zZXJpZiIgZm9udC1zaXplPSIxMyIgbGVuZ3RoQWRqdXN0PSJzcGFjaW5nIiB0ZXh0TGVuZ3RoPSIxMDMiIHg9IjUxMC41IiB5PSIxODUuOTI5NyI+JiMxNzE7Y3JlYXRlUmVxdWVzdCYjMTg3OzwvdGV4dD48cG9seWdvbiBmaWxsPSIjMTgxODE4IiBwb2ludHM9IjcwMy41LDIxMy40Njg4LDcxMy41LDIxNy40Njg4LDcwMy41LDIyMS40Njg4LDcwNy41LDIxNy40Njg4IiBzdHlsZT0ic3Ryb2tlOiMxODE4MTg7c3Ryb2tlLXdpZHRoOjEuMDsiLz48bGluZSBzdHlsZT0ic3Ryb2tlOiMxODE4MTg7c3Ryb2tlLXdpZHRoOjEuMDsiIHgxPSI2MzUuNSIgeDI9IjcwOS41IiB5MT0iMjE3LjQ2ODgiIHkyPSIyMTcuNDY4OCIvPjx0ZXh0IGZpbGw9IiMwMDAwMDAiIGZvbnQtZmFtaWx5PSJzYW5zLXNlcmlmIiBmb250LXNpemU9IjEzIiBsZW5ndGhBZGp1c3Q9InNwYWNpbmciIHRleHRMZW5ndGg9IjQyIiB4PSI2NDIuNSIgeT0iMjEzLjg0MzgiPkRvV29yazwvdGV4dD48cG9seWdvbiBmaWxsPSIjMTgxODE4IiBwb2ludHM9IjY0Ni41LDI0MS4zODI4LDYzNi41LDI0NS4zODI4LDY0Ni41LDI0OS4zODI4LDY0Mi41LDI0NS4zODI4IiBzdHlsZT0ic3Ryb2tlOiMxODE4MTg7c3Ryb2tlLXdpZHRoOjEuMDsiLz48bGluZSBzdHlsZT0ic3Ryb2tlOiMxODE4MTg7c3Ryb2tlLXdpZHRoOjEuMDtzdHJva2UtZGFzaGFycmF5OjIuMCwyLjA7IiB4MT0iNjQwLjUiIHgyPSI3MTkuNSIgeTE9IjI0NS4zODI4IiB5Mj0iMjQ1LjM4MjgiLz48dGV4dCBmaWxsPSIjMDAwMDAwIiBmb250LWZhbWlseT0ic2Fucy1zZXJpZiIgZm9udC1zaXplPSIxMyIgbGVuZ3RoQWRqdXN0PSJzcGFjaW5nIiB0ZXh0TGVuZ3RoPSI1NiIgeD0iNjUyLjUiIHk9IjI0MS43NTc4Ij5Xb3JrRG9uZTwvdGV4dD48bGluZSBzdHlsZT0ic3Ryb2tlOiNBODAwMzY7c3Ryb2tlLXdpZHRoOjIuMDsiIHgxPSI3MTEuNSIgeDI9IjcyOS41IiB5MT0iMjM2LjM4MjgiIHkyPSIyNTQuMzgyOCIvPjxsaW5lIHN0eWxlPSJzdHJva2U6I0E4MDAzNjtzdHJva2Utd2lkdGg6Mi4wOyIgeDE9IjcxMS41IiB4Mj0iNzI5LjUiIHkxPSIyNTQuMzgyOCIgeTI9IjIzNi4zODI4Ii8+PHBvbHlnb24gZmlsbD0iIzE4MTgxOCIgcG9pbnRzPSI1MTQuNSwyNjkuMjk2OSw1MDQuNSwyNzMuMjk2OSw1MTQuNSwyNzcuMjk2OSw1MTAuNSwyNzMuMjk2OSIgc3R5bGU9InN0cm9rZTojMTgxODE4O3N0cm9rZS13aWR0aDoxLjA7Ii8+PGxpbmUgc3R5bGU9InN0cm9rZTojMTgxODE4O3N0cm9rZS13aWR0aDoxLjA7c3Ryb2tlLWRhc2hhcnJheToyLjAsMi4wOyIgeDE9IjUwOC41IiB4Mj0iNjI5LjUiIHkxPSIyNzMuMjk2OSIgeTI9IjI3My4yOTY5Ii8+PHRleHQgZmlsbD0iIzAwMDAwMCIgZm9udC1mYW1pbHk9InNhbnMtc2VyaWYiIGZvbnQtc2l6ZT0iMTMiIGxlbmd0aEFkanVzdD0ic3BhY2luZyIgdGV4dExlbmd0aD0iOTYiIHg9IjUyMC41IiB5PSIyNjkuNjcxOSI+UmVxdWVzdENyZWF0ZWQ8L3RleHQ+PHBvbHlnb24gZmlsbD0iIzE4MTgxOCIgcG9pbnRzPSI3NTAsMjk3LjIxMDksNzYwLDMwMS4yMTA5LDc1MCwzMDUuMjEwOSw3NTQsMzAxLjIxMDkiIHN0eWxlPSJzdHJva2U6IzE4MTgxODtzdHJva2Utd2lkdGg6MS4wOyIvPjxsaW5lIHN0eWxlPSJzdHJva2U6IzE4MTgxODtzdHJva2Utd2lkdGg6MS4wOyIgeDE9IjQ5OC41IiB4Mj0iNzU2IiB5MT0iMzAxLjIxMDkiIHkyPSIzMDEuMjEwOSIvPjx0ZXh0IGZpbGw9IiMwMDAwMDAiIGZvbnQtZmFtaWx5PSJzYW5zLXNlcmlmIiBmb250LXNpemU9IjEzIiBsZW5ndGhBZGp1c3Q9InNwYWNpbmciIHRleHRMZW5ndGg9IjI4IiB4PSI1MDUuNSIgeT0iMjk3LjU4NTkiPkRvbmU8L3RleHQ+PCEtLVNSQz1bVE9fSFJpOG0zNE5WX0hOLVdWODE0UWhLYmpUZlEwWnNFNWNmRFFBcjJKWTZnTi1fOTgwZWJWT0lzUnctbnBUYXJMcjk2SXQ5QVZub1VXUGRmbndtZ2ZTcFd5NFphbXBKcnY0NjA3ZnUzeGREWGJvS2hMVXo4emJjcFhqdi1rUUhsVXZPaGl2b0NWc2g2am5ES05kQ0JTaWdBZWMtd3Y3YmhhVTBIU0FnTmFPVWp3TXVpTU5ibEREUGkwUVFkQTByazV3WjVLd3AzcHZWRTJoTXpORWoxTVhCS2VFUnkxZGFQX09yd0IydzhSQW0yUHdYSnR1OUt6QW9CT2NEbUprc0FwVndqM0E3Ym4zeG85QnYxVjFDLTBTMF0tLT48L2c+PC9zdmc+;" vertex="1" parent="1">
            <mxGeometry x="240" y="80" width="789" height="353" as="geometry" />
          </mxCell>
        </UserObject>
      </root>
    </mxGraphModel>
  </diagram>
</mxfile>
